<mxfile host="app.diagrams.net" agent="Mozilla/5.0 (Macintosh; Intel Mac OS X 10_15_7) AppleWebKit/605.1.15 (KHTML, like Gecko) Version/18.6 Safari/605.1.15" version="28.2.8">
  <diagram name="Page-1" id="CiKc_1V1TXyM2Xkhl56R">
    <mxGraphModel dx="2107" dy="725" grid="1" gridSize="10" guides="1" tooltips="1" connect="1" arrows="1" fold="1" page="1" pageScale="1" pageWidth="850" pageHeight="1100" math="0" shadow="0">
      <root>
        <mxCell id="0" />
        <mxCell id="1" parent="0" />
        <mxCell id="O53aIXAgfHzwUR_KcHCy-10" style="edgeStyle=orthogonalEdgeStyle;rounded=0;orthogonalLoop=1;jettySize=auto;html=1;entryX=0;entryY=0.5;entryDx=0;entryDy=0;" edge="1" parent="1" source="O53aIXAgfHzwUR_KcHCy-4" target="O53aIXAgfHzwUR_KcHCy-8">
          <mxGeometry relative="1" as="geometry">
            <Array as="points">
              <mxPoint x="240" y="170" />
              <mxPoint x="340" y="170" />
              <mxPoint x="340" y="260" />
            </Array>
          </mxGeometry>
        </mxCell>
        <mxCell id="O53aIXAgfHzwUR_KcHCy-4" value="WebApp" style="rounded=0;whiteSpace=wrap;html=1;" vertex="1" parent="1">
          <mxGeometry x="180" y="50" width="120" height="60" as="geometry" />
        </mxCell>
        <mxCell id="O53aIXAgfHzwUR_KcHCy-6" style="edgeStyle=orthogonalEdgeStyle;rounded=0;orthogonalLoop=1;jettySize=auto;html=1;entryX=0;entryY=0.5;entryDx=0;entryDy=0;" edge="1" parent="1" source="O53aIXAgfHzwUR_KcHCy-5" target="O53aIXAgfHzwUR_KcHCy-4">
          <mxGeometry relative="1" as="geometry" />
        </mxCell>
        <mxCell id="O53aIXAgfHzwUR_KcHCy-5" value="" style="shape=actor;whiteSpace=wrap;html=1;" vertex="1" parent="1">
          <mxGeometry x="60" y="50" width="40" height="60" as="geometry" />
        </mxCell>
        <mxCell id="O53aIXAgfHzwUR_KcHCy-7" value="Recos&lt;div&gt;(client_id, product_id, %desc)&lt;/div&gt;" style="shape=cylinder3;whiteSpace=wrap;html=1;boundedLbl=1;backgroundOutline=1;size=15;" vertex="1" parent="1">
          <mxGeometry x="-50" y="125" width="140" height="110" as="geometry" />
        </mxCell>
        <mxCell id="O53aIXAgfHzwUR_KcHCy-12" style="edgeStyle=orthogonalEdgeStyle;rounded=0;orthogonalLoop=1;jettySize=auto;html=1;entryX=1;entryY=0.75;entryDx=0;entryDy=0;" edge="1" parent="1" source="O53aIXAgfHzwUR_KcHCy-8" target="O53aIXAgfHzwUR_KcHCy-4">
          <mxGeometry relative="1" as="geometry">
            <Array as="points">
              <mxPoint x="410" y="95" />
            </Array>
          </mxGeometry>
        </mxCell>
        <mxCell id="O53aIXAgfHzwUR_KcHCy-8" value="Serverless&lt;div&gt;Backend&lt;/div&gt;" style="whiteSpace=wrap;html=1;aspect=fixed;" vertex="1" parent="1">
          <mxGeometry x="380" y="220" width="80" height="80" as="geometry" />
        </mxCell>
        <mxCell id="O53aIXAgfHzwUR_KcHCy-9" value="segmentos&lt;div&gt;productos&lt;/div&gt;&lt;div&gt;rango de descuento&lt;/div&gt;" style="text;html=1;whiteSpace=wrap;strokeColor=none;fillColor=none;align=center;verticalAlign=middle;rounded=0;" vertex="1" parent="1">
          <mxGeometry x="110" y="20" width="60" height="30" as="geometry" />
        </mxCell>
        <mxCell id="O53aIXAgfHzwUR_KcHCy-11" style="edgeStyle=orthogonalEdgeStyle;rounded=0;orthogonalLoop=1;jettySize=auto;html=1;entryX=0.5;entryY=1;entryDx=0;entryDy=0;entryPerimeter=0;" edge="1" parent="1" source="O53aIXAgfHzwUR_KcHCy-8" target="O53aIXAgfHzwUR_KcHCy-7">
          <mxGeometry relative="1" as="geometry" />
        </mxCell>
        <mxCell id="O53aIXAgfHzwUR_KcHCy-22" style="edgeStyle=orthogonalEdgeStyle;rounded=0;orthogonalLoop=1;jettySize=auto;html=1;entryX=1;entryY=0.5;entryDx=0;entryDy=0;" edge="1" parent="1" source="O53aIXAgfHzwUR_KcHCy-13" target="O53aIXAgfHzwUR_KcHCy-17">
          <mxGeometry relative="1" as="geometry">
            <Array as="points">
              <mxPoint x="770" y="540" />
            </Array>
          </mxGeometry>
        </mxCell>
        <mxCell id="O53aIXAgfHzwUR_KcHCy-13" value="Txs" style="rounded=0;whiteSpace=wrap;html=1;" vertex="1" parent="1">
          <mxGeometry x="710" y="620" width="120" height="60" as="geometry" />
        </mxCell>
        <mxCell id="O53aIXAgfHzwUR_KcHCy-21" style="edgeStyle=orthogonalEdgeStyle;rounded=0;orthogonalLoop=1;jettySize=auto;html=1;entryX=0.5;entryY=1;entryDx=0;entryDy=0;" edge="1" parent="1" source="O53aIXAgfHzwUR_KcHCy-14" target="O53aIXAgfHzwUR_KcHCy-17">
          <mxGeometry relative="1" as="geometry" />
        </mxCell>
        <mxCell id="O53aIXAgfHzwUR_KcHCy-14" value="productos" style="rounded=0;whiteSpace=wrap;html=1;" vertex="1" parent="1">
          <mxGeometry x="560" y="620" width="120" height="60" as="geometry" />
        </mxCell>
        <mxCell id="O53aIXAgfHzwUR_KcHCy-20" style="edgeStyle=orthogonalEdgeStyle;rounded=0;orthogonalLoop=1;jettySize=auto;html=1;entryX=0;entryY=0.5;entryDx=0;entryDy=0;" edge="1" parent="1" source="O53aIXAgfHzwUR_KcHCy-15" target="O53aIXAgfHzwUR_KcHCy-17">
          <mxGeometry relative="1" as="geometry">
            <Array as="points">
              <mxPoint x="480" y="540" />
            </Array>
          </mxGeometry>
        </mxCell>
        <mxCell id="O53aIXAgfHzwUR_KcHCy-15" value="client demographics" style="rounded=0;whiteSpace=wrap;html=1;" vertex="1" parent="1">
          <mxGeometry x="410" y="620" width="120" height="60" as="geometry" />
        </mxCell>
        <mxCell id="O53aIXAgfHzwUR_KcHCy-16" value="Features" style="shape=cylinder3;whiteSpace=wrap;html=1;boundedLbl=1;backgroundOutline=1;size=15;" vertex="1" parent="1">
          <mxGeometry x="705" y="410" width="100" height="60" as="geometry" />
        </mxCell>
        <mxCell id="O53aIXAgfHzwUR_KcHCy-17" value="ETL" style="whiteSpace=wrap;html=1;aspect=fixed;" vertex="1" parent="1">
          <mxGeometry x="590" y="500" width="80" height="80" as="geometry" />
        </mxCell>
        <mxCell id="O53aIXAgfHzwUR_KcHCy-18" value="Raw" style="shape=cylinder3;whiteSpace=wrap;html=1;boundedLbl=1;backgroundOutline=1;size=15;" vertex="1" parent="1">
          <mxGeometry x="455" y="410" width="100" height="60" as="geometry" />
        </mxCell>
        <mxCell id="O53aIXAgfHzwUR_KcHCy-19" value="Cleaned" style="shape=cylinder3;whiteSpace=wrap;html=1;boundedLbl=1;backgroundOutline=1;size=15;" vertex="1" parent="1">
          <mxGeometry x="585" y="410" width="100" height="60" as="geometry" />
        </mxCell>
        <mxCell id="O53aIXAgfHzwUR_KcHCy-23" value="Model specs" style="rounded=0;whiteSpace=wrap;html=1;" vertex="1" parent="1">
          <mxGeometry x="645" y="217.5" width="120" height="60" as="geometry" />
        </mxCell>
        <mxCell id="O53aIXAgfHzwUR_KcHCy-24" value="" style="dashed=0;outlineConnect=0;html=1;align=center;labelPosition=center;verticalLabelPosition=bottom;verticalAlign=top;shape=mxgraph.weblogos.github" vertex="1" parent="1">
          <mxGeometry x="640" y="200" width="40" height="35" as="geometry" />
        </mxCell>
        <mxCell id="O53aIXAgfHzwUR_KcHCy-26" style="edgeStyle=orthogonalEdgeStyle;rounded=0;orthogonalLoop=1;jettySize=auto;html=1;entryX=0.5;entryY=0;entryDx=0;entryDy=0;" edge="1" parent="1" source="O53aIXAgfHzwUR_KcHCy-25" target="O53aIXAgfHzwUR_KcHCy-23">
          <mxGeometry relative="1" as="geometry" />
        </mxCell>
        <mxCell id="O53aIXAgfHzwUR_KcHCy-25" value="" style="shape=actor;whiteSpace=wrap;html=1;" vertex="1" parent="1">
          <mxGeometry x="765" y="110" width="40" height="60" as="geometry" />
        </mxCell>
        <mxCell id="O53aIXAgfHzwUR_KcHCy-37" style="edgeStyle=orthogonalEdgeStyle;rounded=0;orthogonalLoop=1;jettySize=auto;html=1;entryX=1;entryY=0.5;entryDx=0;entryDy=0;" edge="1" parent="1" source="O53aIXAgfHzwUR_KcHCy-27" target="O53aIXAgfHzwUR_KcHCy-36">
          <mxGeometry relative="1" as="geometry" />
        </mxCell>
        <mxCell id="O53aIXAgfHzwUR_KcHCy-27" value="mlflow" style="ellipse;whiteSpace=wrap;html=1;aspect=fixed;" vertex="1" parent="1">
          <mxGeometry x="475" y="150" width="80" height="80" as="geometry" />
        </mxCell>
        <mxCell id="O53aIXAgfHzwUR_KcHCy-38" style="edgeStyle=orthogonalEdgeStyle;rounded=0;orthogonalLoop=1;jettySize=auto;html=1;exitX=0;exitY=0.5;exitDx=0;exitDy=0;entryX=1;entryY=1;entryDx=0;entryDy=0;" edge="1" parent="1" source="O53aIXAgfHzwUR_KcHCy-29" target="O53aIXAgfHzwUR_KcHCy-27">
          <mxGeometry relative="1" as="geometry" />
        </mxCell>
        <mxCell id="O53aIXAgfHzwUR_KcHCy-29" value="Train pipeline" style="rounded=0;whiteSpace=wrap;html=1;" vertex="1" parent="1">
          <mxGeometry x="630" y="320" width="120" height="60" as="geometry" />
        </mxCell>
        <mxCell id="O53aIXAgfHzwUR_KcHCy-34" style="edgeStyle=orthogonalEdgeStyle;rounded=0;orthogonalLoop=1;jettySize=auto;html=1;entryX=0.25;entryY=0;entryDx=0;entryDy=0;" edge="1" parent="1" source="O53aIXAgfHzwUR_KcHCy-33" target="O53aIXAgfHzwUR_KcHCy-29">
          <mxGeometry relative="1" as="geometry">
            <Array as="points">
              <mxPoint x="590" y="320" />
            </Array>
          </mxGeometry>
        </mxCell>
        <mxCell id="O53aIXAgfHzwUR_KcHCy-33" value="jfrog" style="ellipse;whiteSpace=wrap;html=1;aspect=fixed;" vertex="1" parent="1">
          <mxGeometry x="539" y="40" width="80" height="80" as="geometry" />
        </mxCell>
        <mxCell id="O53aIXAgfHzwUR_KcHCy-35" style="edgeStyle=orthogonalEdgeStyle;rounded=0;orthogonalLoop=1;jettySize=auto;html=1;entryX=0.433;entryY=0.042;entryDx=0;entryDy=0;entryPerimeter=0;" edge="1" parent="1" source="O53aIXAgfHzwUR_KcHCy-33" target="O53aIXAgfHzwUR_KcHCy-23">
          <mxGeometry relative="1" as="geometry" />
        </mxCell>
        <mxCell id="O53aIXAgfHzwUR_KcHCy-39" style="edgeStyle=orthogonalEdgeStyle;rounded=0;orthogonalLoop=1;jettySize=auto;html=1;" edge="1" parent="1" source="O53aIXAgfHzwUR_KcHCy-36" target="O53aIXAgfHzwUR_KcHCy-16">
          <mxGeometry relative="1" as="geometry">
            <Array as="points">
              <mxPoint x="430" y="400" />
              <mxPoint x="755" y="400" />
            </Array>
          </mxGeometry>
        </mxCell>
        <mxCell id="O53aIXAgfHzwUR_KcHCy-41" value="" style="edgeStyle=orthogonalEdgeStyle;rounded=0;orthogonalLoop=1;jettySize=auto;html=1;" edge="1" parent="1" source="O53aIXAgfHzwUR_KcHCy-36" target="O53aIXAgfHzwUR_KcHCy-40">
          <mxGeometry relative="1" as="geometry" />
        </mxCell>
        <mxCell id="O53aIXAgfHzwUR_KcHCy-36" value="Inferencia" style="rounded=0;whiteSpace=wrap;html=1;" vertex="1" parent="1">
          <mxGeometry x="370" y="330" width="120" height="60" as="geometry" />
        </mxCell>
        <mxCell id="O53aIXAgfHzwUR_KcHCy-40" value="Optimízación" style="whiteSpace=wrap;html=1;rounded=0;" vertex="1" parent="1">
          <mxGeometry x="170" y="330" width="120" height="60" as="geometry" />
        </mxCell>
        <mxCell id="O53aIXAgfHzwUR_KcHCy-42" style="edgeStyle=orthogonalEdgeStyle;rounded=0;orthogonalLoop=1;jettySize=auto;html=1;entryX=0.721;entryY=0.982;entryDx=0;entryDy=0;entryPerimeter=0;" edge="1" parent="1" source="O53aIXAgfHzwUR_KcHCy-40" target="O53aIXAgfHzwUR_KcHCy-7">
          <mxGeometry relative="1" as="geometry" />
        </mxCell>
      </root>
    </mxGraphModel>
  </diagram>
</mxfile>
